<svg width="731" height="352" viewBox="0 0 731 352" fill="none" xmlns="http://www.w3.org/2000/svg">
<path d="M718.817 267.034H597.498C609.756 258.579 619.521 248.196 625.849 236.307C627.851 232.546 627.728 228.013 625.526 224.364C623.322 220.715 619.36 218.483 615.086 218.483H408.314C404.039 218.483 400.078 220.715 397.874 224.364C395.672 228.013 395.549 232.546 397.551 236.307C403.881 248.196 413.644 258.579 425.902 267.034H365.5V12.1379C365.5 5.43476 360.045 0 353.317 0H316.767C310.038 0 304.583 5.43476 304.583 12.1379V133.517H292.4V12.1379C292.4 5.43476 286.945 0 280.217 0H243.667C236.938 0 231.483 5.43476 231.483 12.1379V267.034H209.509C196.686 238.034 162.151 218.483 121.833 218.483C81.8598 218.483 47.0688 238.113 34.188 267.034H12.1833C5.45509 267.034 0 272.469 0 279.172C0 285.876 5.45509 291.31 12.1833 291.31V339.862C12.1833 346.565 17.6384 352 24.3667 352C31.0949 352 36.55 346.565 36.55 339.862H109.65C109.65 346.565 115.105 352 121.833 352C128.562 352 134.017 346.565 134.017 339.862H207.117C207.117 346.565 212.572 352 219.3 352C226.028 352 231.483 346.565 231.483 339.862H304.583C304.583 346.565 310.038 352 316.767 352C323.495 352 328.95 346.565 328.95 339.862H402.05C402.05 346.565 407.505 352 414.233 352C420.962 352 426.417 346.565 426.417 339.862H499.517C499.517 346.565 504.972 352 511.7 352C518.428 352 523.883 346.565 523.883 339.862H596.983C596.983 346.565 602.438 352 609.167 352C615.895 352 621.35 346.565 621.35 339.862H694.45C694.45 346.565 699.905 352 706.633 352C713.362 352 718.817 346.565 718.817 339.862V291.31C725.545 291.31 731 285.876 731 279.172C731 272.469 725.545 267.034 718.817 267.034ZM434.042 242.759H589.358C571.226 257.773 542.768 267.034 511.7 267.034C480.633 267.034 452.174 257.773 434.042 242.759ZM341.133 24.2759V267.034H328.95V24.2759H341.133ZM304.583 157.793V267.034H292.4V157.793H304.583ZM255.85 24.2759H268.033V267.034H255.85V24.2759ZM121.833 242.759C146.771 242.759 169.097 252.367 181.105 267.034H62.6193C74.6975 252.396 97.1179 242.759 121.833 242.759ZM36.55 315.586V291.31H109.65V315.586H36.55ZM134.017 315.586V291.31H200.889C200.902 291.31 200.914 291.313 200.926 291.313C200.941 291.313 200.956 291.31 200.972 291.31H207.117V315.586H134.017ZM231.483 315.586V291.31H304.583V315.586H231.483ZM328.95 315.586V291.31H402.05V315.586H328.95ZM426.417 315.586V291.31H499.517V315.586H426.417ZM523.883 315.586V291.31H596.983V315.586H523.883ZM694.45 315.586H621.35V291.31H694.45V315.586Z" fill="black"/>
</svg>
